<svg t="1654544667837" class="icon" viewBox="0 0 1024 1024" version="1.1" xmlns="http://www.w3.org/2000/svg" p-id="7440" width="200" height="200"><path d="M336.3328 336.3328h131.4816v131.4816H336.384V336.384z m197.2736 32.8704h131.4816v65.7408h-131.4816V369.2032z m-197.2736 164.352h328.7552v65.792H336.384v-65.7408z m0 131.584h328.7552v65.7408H336.384V665.088zM763.7504 204.8H237.6704C217.9584 204.8 204.8 217.9584 204.8 237.6704v591.872c0 19.712 13.1584 32.8192 32.8704 32.8192h526.08c19.712 0 32.8704-13.1072 32.8704-32.8704V237.6704c0-19.712-13.1584-32.8704-32.8704-32.8704z m-32.8704 591.872h-460.288V270.4896h460.288V796.672z" fill="#cdcdcd" p-id="7441"></path></svg>