<?xml version="1.0" standalone="no"?><!DOCTYPE svg PUBLIC "-//W3C//DTD SVG 1.1//EN" "http://www.w3.org/Graphics/SVG/1.1/DTD/svg11.dtd"><svg t="1655434959567" class="icon" viewBox="0 0 1024 1024" version="1.1" xmlns="http://www.w3.org/2000/svg" p-id="4776" xmlns:xlink="http://www.w3.org/1999/xlink" width="200" height="200"><defs><style type="text/css">@font-face { font-family: feedback-iconfont; src: url("//at.alicdn.com/t/font_1031158_u69w8yhxdu.woff2?t=1630033759944") format("woff2"), url("//at.alicdn.com/t/font_1031158_u69w8yhxdu.woff?t=1630033759944") format("woff"), url("//at.alicdn.com/t/font_1031158_u69w8yhxdu.ttf?t=1630033759944") format("truetype"); }
</style></defs><path d="M770.112 36.288A47.36 47.36 0 0 1 806.4 54.4l121.856 157.632c20.928 17.92 34.112 44.544 34.112 74.496v603.264c0 54.4-43.52 97.92-97.92 97.92H159.552c-54.4 0-97.92-43.52-97.92-97.92V286.528c0-32.064 15.168-60.352 38.72-78.208L219.392 54.4a47.36 47.36 0 0 1 36.288-18.112h514.432z m94.336 206.72H159.552a42.624 42.624 0 0 0-22.528 6.528l2.56-2.944a26.176 26.176 0 0 1-8.96 7.936 43.008 43.008 0 0 0-14.592 32v603.264c0 23.616 19.968 43.52 43.52 43.52h704.896a44.16 44.16 0 0 0 43.52-43.52V286.528a44.16 44.16 0 0 0-43.52-43.52z m-350.4 129.92c14.528 0 27.2 12.736 27.2 27.2v339.072l155.968-155.904a26.24 26.24 0 0 1 38.08 0 26.24 26.24 0 0 1 0 38.08l-201.28 203.072a27.264 27.264 0 0 1-19.968 7.296 27.264 27.264 0 0 1-19.904-7.296L292.864 621.44a26.24 26.24 0 0 1 0-38.08 26.24 26.24 0 0 1 38.08 0l155.904 155.904V400.128c0-14.464 12.736-27.2 27.2-27.2z m250.624-282.24H259.328l-75.264 97.92h656.64l-76.032-97.92z" fill="#ffffff" p-id="4777"></path></svg>