<?xml version="1.0" encoding="UTF-8"?>
<svg width="20px" height="20px" viewBox="0 0 20 20" version="1.1" xmlns="http://www.w3.org/2000/svg" xmlns:xlink="http://www.w3.org/1999/xlink">
    <title>icon/列表/下载</title>
    <g id="控件" stroke="none" stroke-width="1" fill="none" fill-rule="evenodd">
        <g id="icon/列表/下载">
            <rect id="矩形" fill-opacity="0" fill="#D8D8D8" x="0" y="0" width="20" height="20"></rect>
            <path d="M10,13.2666667 C9.88053334,13.2666667 9.76106666,13.2209333 9.6696,13.1304 L5.00293334,8.46373334 C4.86946666,8.32933332 4.82933334,8.12959999 4.90213334,7.95506666 C4.974,7.78053332 5.1448,7.66666666 5.33333334,7.66666666 L7.66666666,7.66666666 L7.66666666,3.46666666 C7.66666666,3.20906666 7.87573332,3 8.13333332,3 L11.8666667,3 C12.1242667,3 12.3333333,3.20906666 12.3333333,3.46666666 L12.3333333,7.66666666 L14.6666667,7.66666666 C14.8552,7.66666666 15.026,7.78053332 15.0978667,7.95506666 C15.1697333,8.1296 15.1296,8.33026666 14.9970667,8.46373332 L10.3304,13.1304 C10.2389333,13.2209333 10.1194667,13.2666667 10,13.2666667 Z M6.45986666,8.59999999 L10,12.1401333 L13.5401333,8.59999999 L11.8666667,8.59999999 C11.6090667,8.59999999 11.4,8.39093332 11.4,8.13333332 L11.4,3.93333332 L8.6,3.93333332 L8.6,8.13333332 C8.6,8.39093332 8.39093334,8.59999999 8.13333334,8.59999999 L6.45986666,8.59999999 Z M16.5333333,16.0666667 L3.46666668,16.0666667 C3.20906666,16.0666667 3,15.8576 3,15.6 C3,15.3424 3.20906666,15.1333333 3.46666666,15.1333333 L16.5333333,15.1333333 C16.7909333,15.1333333 17,15.3424 17,15.6 C17,15.8576 16.7909333,16.0666667 16.5333333,16.0666667 Z" id="形状" fill="#0091FF"></path>
        </g>
    </g>
</svg>