<?xml version="1.0" standalone="no"?><!DOCTYPE svg PUBLIC "-//W3C//DTD SVG 1.1//EN" "http://www.w3.org/Graphics/SVG/1.1/DTD/svg11.dtd"><svg t="1656177725444" class="icon" viewBox="0 0 1024 1024" version="1.1" xmlns="http://www.w3.org/2000/svg" p-id="15429" xmlns:xlink="http://www.w3.org/1999/xlink" width="200" height="200"><defs><style type="text/css">@font-face { font-family: feedback-iconfont; src: url("//at.alicdn.com/t/font_1031158_u69w8yhxdu.woff2?t=1630033759944") format("woff2"), url("//at.alicdn.com/t/font_1031158_u69w8yhxdu.woff?t=1630033759944") format("woff"), url("//at.alicdn.com/t/font_1031158_u69w8yhxdu.ttf?t=1630033759944") format("truetype"); }
</style></defs><path d="M276.549 496.606l235.075-179.634 235.071 185.711a37.975 37.975 0 0 0 23.927 8.737 38 38 0 0 0 29.248-13.674 37.986 37.986 0 0 0-4.938-53.552L535.929 238.737c-14.013-11.523-34.219-11.523-48.231 0L228.695 437.739a37.974 37.974 0 0 0-5.698 53.552 37.982 37.982 0 0 0 53.552 5.315z m0 0" p-id="15430" fill="#ffffff"></path><path d="M535.929 520.155c-14.013-11.522-34.219-11.522-48.231 0L228.695 719.158a37.97 37.97 0 0 0-13.983 25.591 37.985 37.985 0 0 0 8.285 27.959 37.97 37.97 0 0 0 25.591 13.979 37.985 37.985 0 0 0 27.96-8.284L511.624 598.39l235.071 185.711a37.974 37.974 0 0 0 23.927 8.736 37.993 37.993 0 0 0 29.248-13.674 37.984 37.984 0 0 0-4.938-53.552L535.929 520.155z m0 0" p-id="15431" fill="#ffffff"></path></svg>