<?xml version="1.0" standalone="no"?><!DOCTYPE svg PUBLIC "-//W3C//DTD SVG 1.1//EN" "http://www.w3.org/Graphics/SVG/1.1/DTD/svg11.dtd"><svg t="1655434981795" class="icon" viewBox="0 0 1024 1024" version="1.1" xmlns="http://www.w3.org/2000/svg" p-id="4972" xmlns:xlink="http://www.w3.org/1999/xlink" width="200" height="200"><defs><style type="text/css">@font-face { font-family: feedback-iconfont; src: url("//at.alicdn.com/t/font_1031158_u69w8yhxdu.woff2?t=1630033759944") format("woff2"), url("//at.alicdn.com/t/font_1031158_u69w8yhxdu.woff?t=1630033759944") format("woff"), url("//at.alicdn.com/t/font_1031158_u69w8yhxdu.ttf?t=1630033759944") format("truetype"); }
</style></defs><path d="M689.3056 427.52l-155.904 155.904V251.392a46.6432 46.6432 0 0 0-93.184 0v332.032L284.416 427.52a46.592 46.592 0 1 0-65.8944 65.8944l235.3664 235.3664a45.3632 45.3632 0 0 0 15.36 10.1376c0.1536 0.1024 0.4608 0.1024 0.6656 0.2048a45.9264 45.9264 0 0 0 33.9968 0c0.2048-0.1024 0.512-0.1024 0.6656-0.2048a47.9744 47.9744 0 0 0 15.36-10.1376l235.3664-235.3664a46.592 46.592 0 1 0-66.048-65.8944z m32.8704 319.5904H251.392a46.6432 46.6432 0 0 0 0 93.184h470.784a46.6432 46.6432 0 0 0 0-93.184z" fill="#ffffff" p-id="4973"></path></svg>