<?xml version="1.0" encoding="UTF-8"?>
<svg width="20px" height="20px" viewBox="0 0 20 20" version="1.1" xmlns="http://www.w3.org/2000/svg" xmlns:xlink="http://www.w3.org/1999/xlink">
    <title>icon/列表/展开</title>
    <g id="控件" stroke="none" stroke-width="1" fill="none" fill-rule="evenodd">
        <g id="研报列表-种类1" transform="translate(-734.000000, -18.000000)" fill-rule="nonzero">
            <g id="编组-12" transform="translate(710.000000, 18.000000)">
                <g id="icon/列表/展开" transform="translate(34.000000, 10.000000) rotate(-270.000000) translate(-34.000000, -10.000000) translate(24.000000, 0.000000)">
                    <rect id="矩形" fill="#000000" opacity="0" transform="translate(10.000000, 10.000000) rotate(-270.000000) translate(-10.000000, -10.000000) " x="7.10542736e-15" y="0" width="20" height="20"></rect>
                    <path d="M10.1515448,9.39719069 L14.5213925,12.968884 C14.7106128,13.1234986 14.7386573,13.4022494 14.5839368,13.5913639 C14.4965229,13.698356 14.3694235,13.7538098 14.2411601,13.7538098 C14.1427401,13.7538098 14.0436851,13.721109 13.9614568,13.6539083 L10.1516506,10.5399209 C10.0430712,10.4511312 9.88697495,10.4511312 9.77839547,10.5399209 L5.96848349,13.6539083 C5.77926312,13.8087346 5.50061813,13.7805843 5.3460035,13.5913639 C5.19138886,13.4022494 5.21932744,13.1234986 5.40854782,12.968884 L9.77828964,9.39719069 C9.88686912,9.30840104 10.0429653,9.30840104 10.1515448,9.39719069 Z M10.1515448,5.7504654 L14.5213925,9.32215867 C14.7106128,9.4767733 14.7386573,9.75552412 14.5839368,9.94463866 C14.4965229,10.0516307 14.3694235,10.1070846 14.2411601,10.1070846 C14.1427401,10.1070846 14.0436851,10.0743837 13.9614568,10.007183 L10.1516506,6.89319559 C10.0430712,6.80440594 9.88697495,6.80440594 9.77839547,6.89319559 L5.96848349,10.007183 C5.77926312,10.1620093 5.50061813,10.133859 5.3460035,9.94463866 C5.19138886,9.75552412 5.21932744,9.4767733 5.40854782,9.32215867 L9.77828964,5.7504654 C9.88686912,5.66167575 10.0429653,5.66167575 10.1515448,5.7504654 Z" id="形状结合" fill="#FFF" transform="translate(9.964992, 9.718881) rotate(-270.000000) translate(-9.964992, -9.718881) "></path>
                </g>
            </g>
        </g>
    </g>
</svg>