<?xml version="1.0" encoding="UTF-8"?>
<svg width="16px" height="16px" viewBox="0 0 16 16" version="1.1" xmlns="http://www.w3.org/2000/svg" xmlns:xlink="http://www.w3.org/1999/xlink">
    <g id="考评管理" stroke="none" stroke-width="1" fill="none" fill-rule="evenodd">
        <g id="券商服务记录备份-2" transform="translate(-16.000000, -172.000000)" fill-rule="nonzero">
            <g id="icon_xing" transform="translate(16.000000, 172.000000)">
                <rect id="矩形" fill="#000000" opacity="0" x="0" y="0" width="16" height="16"></rect>
                <path d="M11.52168,14.96 C11.31296,14.96 11.11968,14.90592 10.934,14.80536 L8.10432,13.25088 C8.03733202,13.2122425 7.95482798,13.2122425 7.88784,13.25088 L5.05808,14.80536 C4.87256,14.90592 4.67144,14.96 4.47048,14.96 C4.10712,14.96 3.76688,14.7976 3.5272,14.51152 C3.27976,14.22536 3.17936,13.83864 3.24112,13.452 L3.7824,10.1576 C3.79784,10.06488 3.76688,9.96424 3.70504,9.89472 L1.4088,7.57472 C1.06872,7.22672 0.95272,6.71632 1.10736,6.24456 C1.26192,5.78824 1.64072,5.46344 2.10464,5.38616 L5.26688,4.90672 C5.34408,4.89128 5.41376,4.83712 5.4524,4.75976 L6.87496,1.76696 C7.08384,1.3184 7.51672,1.04 8.00392,1.04 C8.49096,1.04 8.91616,1.3184 9.13264,1.76696 L10.54752,4.75976 C10.58616,4.83712 10.65584,4.89128 10.73312,4.90672 L13.8952,5.38616 C14.35904,5.45576 14.7456,5.78824 14.89256,6.24456 C15.04728,6.71624 14.9312,7.22672 14.59104,7.57472 L12.30264,9.91008 C12.2408,9.97192 12.20976,10.07256 12.2252,10.17312 L12.76648,13.46744 C12.82824,13.8464 12.72784,14.23312 12.4804,14.52688 C12.23296,14.7976 11.88504,14.96 11.52168,14.96 Z" id="形状" fill="#1890FF"></path>
            </g>
        </g>
    </g>
</svg>