<?xml version="1.0" standalone="no"?><!DOCTYPE svg PUBLIC "-//W3C//DTD SVG 1.1//EN" "http://www.w3.org/Graphics/SVG/1.1/DTD/svg11.dtd"><svg t="1655543045563" class="icon" viewBox="0 0 1024 1024" version="1.1" xmlns="http://www.w3.org/2000/svg" p-id="4379" xmlns:xlink="http://www.w3.org/1999/xlink" width="200" height="200"><defs><style type="text/css">@font-face { font-family: feedback-iconfont; src: url("//at.alicdn.com/t/font_1031158_u69w8yhxdu.woff2?t=1630033759944") format("woff2"), url("//at.alicdn.com/t/font_1031158_u69w8yhxdu.woff?t=1630033759944") format("woff"), url("//at.alicdn.com/t/font_1031158_u69w8yhxdu.ttf?t=1630033759944") format("truetype"); }
</style></defs><path d="M608.192 862.464c-35.2 0-72.256-13.12-100.032-41.28-55.552-56.32-55.552-146.304 0-200.704l187.072-189.44a26.624 26.624 0 0 1 38.848 0 27.456 27.456 0 0 1 0 39.36l-187.008 189.44a86.848 86.848 0 0 0 0 121.984c33.28 33.728 87.04 33.728 120.32 0l222.272-225.152a47.232 47.232 0 0 0 14.784-33.728 47.232 47.232 0 0 0-14.784-33.792 46.528 46.528 0 0 0-66.688 0L600.768 714.24c-3.712 3.776-3.712 9.408 0 15.04 3.712 3.712 9.28 3.712 14.784 0l187.072-189.44a26.624 26.624 0 0 1 38.848 0 27.456 27.456 0 0 1 0 39.36l-187.008 187.584c-24.064 24.384-68.48 24.384-92.608 0a66.304 66.304 0 0 1 0-93.76l222.208-225.152a101.888 101.888 0 0 1 146.304 0c20.352 18.752 29.632 45.056 29.632 73.152 0 28.16-11.136 54.4-29.632 73.152l-222.208 225.152a135.232 135.232 0 0 1-99.968 43.136z" fill="#ffffff" p-id="4380"></path><path d="M506.304 960H181.44c-51.84 0-92.544-44.992-92.544-101.312V138.88c0-56.32 40.704-101.312 92.544-101.312h606.336c51.84 0 92.608 45.056 92.608 101.312v185.28c0 14.976-12.992 28.16-27.776 28.16a28.672 28.672 0 0 1-27.776-28.16V138.816c0-24.384-16.64-44.992-37.056-44.992H181.44c-20.352 0-36.992 20.608-36.992 44.992v718.016c0 24.384 16.64 44.992 36.992 44.992H508.16c14.848 0 27.776 13.184 27.776 28.16a30.656 30.656 0 0 1-29.632 30.016z" fill="#ffffff" p-id="4381"></path><path d="M593.344 341.376H262.912a28.672 28.672 0 0 1-27.712-28.16c0-14.976 12.928-28.096 27.712-28.096h330.432c14.848 0 27.776 13.12 27.776 28.16 0 14.976-11.072 28.16-27.776 28.16zM262.912 500.608a28.672 28.672 0 0 1-27.712-28.16c0-14.976 12.928-28.096 27.712-28.096h167.488c14.848 0 27.776 13.12 27.776 28.16 0 14.976-11.072 28.16-25.92 28.16H262.912z" fill="#ffffff" p-id="4382"></path></svg>