<?xml version="1.0" encoding="UTF-8"?>
<svg width="12px" height="12px" viewBox="0 0 12 12" version="1.1" xmlns="http://www.w3.org/2000/svg" xmlns:xlink="http://www.w3.org/1999/xlink">
    <title>icon/研报预览/收起</title>
    <g id="页面-1" stroke="none" stroke-width="1" fill="none" fill-rule="evenodd">
        <g id="研报预览样式-展开" transform="translate(-805.000000, -205.000000)" fill="#FFFFFF" fill-rule="nonzero">
            <g id="编组-2备份-4" transform="translate(500.000000, 183.000000)">
                <g id="编组-8" transform="translate(1.000000, 0.000000)">
                    <g id="收起展开按钮" transform="translate(300.000000, 0.000000)">
                        <g id="icon/研报预览/收起" transform="translate(4.000000, 22.000000)">
                            <rect id="矩形" opacity="0" x="0" y="0" width="12" height="12"></rect>
                            <g transform="translate(6.014918, 5.971633) rotate(-90.000000) translate(-6.014918, -5.971633) translate(1.296037, 1.936625)" id="路径">
                                <path d="M8.99504883,4.4232114 C8.89662883,4.4232114 8.79757387,4.39051056 8.71534556,4.32330982 L4.90553941,1.20932243 C4.79695993,1.12053278 4.64086371,1.12053278 4.53228423,1.20932243 L0.72237225,4.32330982 C0.533151878,4.47813611 0.254506889,4.44998587 0.099892256,4.2607655 C-0.054722377,4.07165095 -0.0267837986,3.79290014 0.162436574,3.6382855 L4.5321784,0.0665922367 C4.64075788,-0.0221974122 4.7968541,-0.0221974122 4.90543358,0.0665922367 L9.27528123,3.6382855 C9.46450161,3.79290014 9.49254601,4.07165095 9.33782555,4.2607655 C9.25041167,4.36775755 9.1233123,4.4232114 8.99504883,4.4232114 Z"></path>
                                <path d="M8.99504883,8.06993668 C8.89662883,8.06993668 8.79757387,8.03723585 8.71534556,7.9700351 L4.90553941,4.85604771 C4.79695993,4.76725806 4.64086371,4.76725806 4.53228423,4.85604771 L0.72237225,7.9700351 C0.533151878,8.12486139 0.254506889,8.09671115 0.099892256,7.90749078 C-0.054722377,7.71837624 -0.0267837986,7.43962542 0.162436574,7.28501079 L4.5321784,3.71331752 C4.64075788,3.62452787 4.7968541,3.62452787 4.90543358,3.71331752 L9.27528123,7.28501079 C9.46450161,7.43962542 9.49254601,7.71837624 9.33782555,7.90749078 C9.25041167,8.01448284 9.1233123,8.06993668 8.99504883,8.06993668 L8.99504883,8.06993668 Z"></path>
                            </g>
                        </g>
                    </g>
                </g>
            </g>
        </g>
    </g>
</svg>