<?xml version="1.0" standalone="no"?><!DOCTYPE svg PUBLIC "-//W3C//DTD SVG 1.1//EN" "http://www.w3.org/Graphics/SVG/1.1/DTD/svg11.dtd"><svg t="1655109563721" class="icon" viewBox="0 0 1024 1024" version="1.1" xmlns="http://www.w3.org/2000/svg" p-id="5137" xmlns:xlink="http://www.w3.org/1999/xlink" width="200" height="200"><defs><style type="text/css">@font-face { font-family: feedback-iconfont; src: url("//at.alicdn.com/t/font_1031158_u69w8yhxdu.woff2?t=1630033759944") format("woff2"), url("//at.alicdn.com/t/font_1031158_u69w8yhxdu.woff?t=1630033759944") format("woff"), url("//at.alicdn.com/t/font_1031158_u69w8yhxdu.ttf?t=1630033759944") format("truetype"); }
</style></defs><path d="M0 0h1024v1024H0z" fill="#dbdbdb" fill-opacity="0" p-id="5138"></path><path d="M736.6656 678.0928H292.608a55.5008 55.5008 0 1 0 0 111.0528h444.0576a55.5008 55.5008 0 1 0 0-111.0528m0-222.0032h-166.5024a55.5008 55.5008 0 0 0 0 111.0016h166.5024a55.5008 55.5008 0 1 0 0-111.0016M570.1632 345.088h166.5024a55.5008 55.5008 0 0 0 0-111.0016h-166.5024a55.5008 55.5008 0 0 0 0 111.0016m-277.504 222.0032H375.808c30.6688 0 55.5008-24.832 55.5008-55.5008V289.5872c0-30.6688-24.832-55.5008-55.5008-55.5008H292.608c-30.6176 0-55.5008 24.832-55.5008 55.5008v222.0032c0 30.6688 24.8832 55.5008 55.5008 55.5008" fill="#dbdbdb" p-id="5139"></path></svg>