<?xml version="1.0" standalone="no"?><!DOCTYPE svg PUBLIC "-//W3C//DTD SVG 1.1//EN" "http://www.w3.org/Graphics/SVG/1.1/DTD/svg11.dtd"><svg t="1655109537472" class="icon" viewBox="0 0 1024 1024" version="1.1" xmlns="http://www.w3.org/2000/svg" p-id="4526" xmlns:xlink="http://www.w3.org/1999/xlink" width="200" height="200"><defs><style type="text/css">@font-face { font-family: feedback-iconfont; src: url("//at.alicdn.com/t/font_1031158_u69w8yhxdu.woff2?t=1630033759944") format("woff2"), url("//at.alicdn.com/t/font_1031158_u69w8yhxdu.woff?t=1630033759944") format("woff"), url("//at.alicdn.com/t/font_1031158_u69w8yhxdu.ttf?t=1630033759944") format("truetype"); }
</style></defs><path d="M0 0h1024v1024H0z" fill="#dbdbdb" fill-opacity="0" p-id="4527"></path><path d="M744.4992 248.576H282.112a32.1536 32.1536 0 0 0-32.2048 32.1536v23.4496c0 17.7664 14.4384 32.2048 32.2048 32.2048h462.4384a32.1536 32.1536 0 0 0 32.2048-32.2048v-23.4496a32.1536 32.1536 0 0 0-32.2048-32.1536z m0 438.9888H282.112a32.1536 32.1536 0 0 0-32.2048 32.2048v23.4496c0 17.7664 14.4384 32.1536 32.2048 32.1536h462.4384a32.1536 32.1536 0 0 0 32.2048-32.1536v-23.4496a32.1536 32.1536 0 0 0-32.2048-32.2048z m0-219.4944H282.112a32.1536 32.1536 0 0 0-32.2048 32.1536v23.5008c0 17.7664 14.4384 32.1536 32.2048 32.1536h462.4384a32.1536 32.1536 0 0 0 32.2048-32.1536V500.224a32.1536 32.1536 0 0 0-32.2048-32.1536z" fill="#dbdbdb" p-id="4528"></path></svg>