<?xml version="1.0" encoding="UTF-8"?>
<svg width="12px" height="12px" viewBox="0 0 12 12" version="1.1" xmlns="http://www.w3.org/2000/svg" xmlns:xlink="http://www.w3.org/1999/xlink">
    <title>icon/研报预览/搜索</title>
    <g id="页面-1" stroke="none" stroke-width="1" fill="none" fill-rule="evenodd">
        <g id="研报预览样式-展开备份" transform="translate(-503.000000, -249.000000)" fill="#FFFFFF" fill-rule="nonzero">
            <g id="编组-14" transform="translate(230.000000, 227.000000)">
                <g id="icon/研报预览/搜索" transform="translate(273.000000, 22.000000)">
                    <rect id="矩形" opacity="0" x="0" y="0" width="12" height="12"></rect>
                    <path d="M8.52222351,7.5925264 L8.02832192,7.5925264 L7.85400371,7.41820819 C8.46411744,6.71125102 8.82243821,5.8009226 8.82243821,4.80343507 C8.82243821,2.57603574 7.02115005,0.774747592 4.79375073,0.774747592 C2.5663514,0.774747592 0.784431937,2.58572009 0.784431937,4.80343507 C0.784431937,7.02115005 2.58572009,8.83212255 4.81311942,8.83212255 C5.81060694,8.83212255 6.73061971,8.46411744 7.42789254,7.86368806 L7.60221075,8.03800627 L7.60221075,8.52222351 L10.7012011,11.6115295 L11.6212139,10.6915168 C11.6115295,10.6915168 8.52222351,7.5925264 8.52222351,7.5925264 Z M4.80343507,7.5925264 C3.26362423,7.5925264 2.01434374,6.34324591 2.01434374,4.80343507 C2.01434374,3.26362423 3.26362423,2.01434374 4.80343507,2.01434374 C6.34324591,2.01434374 7.5925264,3.26362423 7.5925264,4.80343507 C7.5925264,6.34324591 6.34324591,7.5925264 4.80343507,7.5925264 Z" id="形状"></path>
                </g>
            </g>
        </g>
    </g>
</svg>