<?xml version="1.0" standalone="no"?><!DOCTYPE svg PUBLIC "-//W3C//DTD SVG 1.1//EN" "http://www.w3.org/Graphics/SVG/1.1/DTD/svg11.dtd"><svg t="1656177573309" class="icon" viewBox="0 0 1024 1024" version="1.1" xmlns="http://www.w3.org/2000/svg" p-id="8046" xmlns:xlink="http://www.w3.org/1999/xlink" width="200" height="200"><defs><style type="text/css">@font-face { font-family: feedback-iconfont; src: url("//at.alicdn.com/t/font_1031158_u69w8yhxdu.woff2?t=1630033759944") format("woff2"), url("//at.alicdn.com/t/font_1031158_u69w8yhxdu.woff?t=1630033759944") format("woff"), url("//at.alicdn.com/t/font_1031158_u69w8yhxdu.ttf?t=1630033759944") format("truetype"); }
</style></defs><path d="M747.451 527.394L512.376 707.028l-235.071-185.71a37.975 37.975 0 0 0-23.927-8.737 38 38 0 0 0-29.248 13.674 37.984 37.984 0 0 0 4.938 53.552l259.003 205.456c14.013 11.523 34.219 11.523 48.231 0l259.003-199.002a37.974 37.974 0 0 0 5.698-53.552 37.982 37.982 0 0 0-53.552-5.315z m0 0" p-id="8047" fill="#ffffff"></path><path d="M488.071 503.845c14.013 11.522 34.219 11.522 48.231 0l259.003-199.003a37.97 37.97 0 0 0 13.983-25.591 37.985 37.985 0 0 0-8.285-27.959 37.97 37.97 0 0 0-25.591-13.979 37.985 37.985 0 0 0-27.96 8.284L512.376 425.61 277.305 239.899a37.974 37.974 0 0 0-23.927-8.736 37.993 37.993 0 0 0-29.248 13.674 37.984 37.984 0 0 0 4.938 53.552l259.003 205.456z m0 0" p-id="8048" fill="#ffffff"></path></svg>